G04 #@! TF.GenerationSoftware,KiCad,Pcbnew,(5.1.8)-1*
G04 #@! TF.CreationDate,2020-12-25T11:22:17+09:00*
G04 #@! TF.ProjectId,bf-023,62662d30-3233-42e6-9b69-6361645f7063,V02L01*
G04 #@! TF.SameCoordinates,Original*
G04 #@! TF.FileFunction,Copper,L1,Top*
G04 #@! TF.FilePolarity,Positive*
%FSLAX46Y46*%
G04 Gerber Fmt 4.6, Leading zero omitted, Abs format (unit mm)*
G04 Created by KiCad (PCBNEW (5.1.8)-1) date 2020-12-25 11:22:17*
%MOMM*%
%LPD*%
G01*
G04 APERTURE LIST*
G04 #@! TA.AperFunction,ComponentPad*
%ADD10C,3.000000*%
G04 #@! TD*
G04 #@! TA.AperFunction,ComponentPad*
%ADD11R,3.000000X3.000000*%
G04 #@! TD*
G04 #@! TA.AperFunction,ComponentPad*
%ADD12O,1.700000X2.400000*%
G04 #@! TD*
G04 #@! TA.AperFunction,ComponentPad*
%ADD13O,2.350000X1.700000*%
G04 #@! TD*
G04 #@! TA.AperFunction,ComponentPad*
%ADD14C,6.400000*%
G04 #@! TD*
G04 #@! TA.AperFunction,ViaPad*
%ADD15C,0.800000*%
G04 #@! TD*
G04 #@! TA.AperFunction,Conductor*
%ADD16C,0.250000*%
G04 #@! TD*
G04 #@! TA.AperFunction,Conductor*
%ADD17C,0.254000*%
G04 #@! TD*
G04 #@! TA.AperFunction,Conductor*
%ADD18C,0.100000*%
G04 #@! TD*
G04 APERTURE END LIST*
D10*
X139420000Y-124000000D03*
D11*
X144500000Y-124000000D03*
D12*
X139500000Y-109100000D03*
X139500000Y-113900000D03*
D13*
X143250000Y-107250000D03*
X143250000Y-115750000D03*
X150000000Y-108050000D03*
X150000000Y-114950000D03*
X147300000Y-114950000D03*
X147300000Y-108050000D03*
X152700000Y-108050000D03*
X152700000Y-114950000D03*
X155400000Y-114950000D03*
X155400000Y-108050000D03*
D10*
X144580000Y-99000000D03*
D11*
X139500000Y-99000000D03*
D10*
X132000000Y-106420000D03*
X132000000Y-111500000D03*
D11*
X132000000Y-116580000D03*
D14*
X132000000Y-99000000D03*
X152000000Y-99000000D03*
X132000000Y-124000000D03*
X152000000Y-124000000D03*
D15*
X137000000Y-96500000D03*
X147000000Y-96500000D03*
X137000000Y-103500000D03*
X130000000Y-103500000D03*
X154000000Y-103500000D03*
X137000000Y-111500000D03*
X143500000Y-111500000D03*
X154000000Y-119500000D03*
X149500000Y-119500000D03*
X137000000Y-119500000D03*
X130000000Y-119500000D03*
X137000000Y-126500000D03*
X147000000Y-126500000D03*
X142000000Y-126500000D03*
X142000000Y-96500000D03*
X143500000Y-119500000D03*
X143500000Y-104500000D03*
D16*
X143250000Y-116750000D02*
X142500000Y-117500000D01*
X143250000Y-115750000D02*
X143250000Y-116750000D01*
X132000000Y-116580000D02*
X134080000Y-116580000D01*
X134080000Y-116580000D02*
X135000000Y-117500000D01*
X142500000Y-117500000D02*
X135000000Y-117500000D01*
X143250000Y-106250000D02*
X142500000Y-105500000D01*
X143250000Y-107250000D02*
X143250000Y-106250000D01*
X134080000Y-106420000D02*
X135000000Y-105500000D01*
X132000000Y-106420000D02*
X134080000Y-106420000D01*
X142500000Y-105500000D02*
X135000000Y-105500000D01*
D17*
X149555330Y-96021161D02*
X149021161Y-96555330D01*
X148601467Y-97183446D01*
X148312377Y-97881372D01*
X148165000Y-98622285D01*
X148165000Y-99377715D01*
X148312377Y-100118628D01*
X148601467Y-100816554D01*
X149021161Y-101444670D01*
X149555330Y-101978839D01*
X150183446Y-102398533D01*
X150881372Y-102687623D01*
X151622285Y-102835000D01*
X152377715Y-102835000D01*
X153118628Y-102687623D01*
X153816554Y-102398533D01*
X154444670Y-101978839D01*
X154978839Y-101444670D01*
X155340000Y-100904154D01*
X155340001Y-105532419D01*
X155342783Y-105560664D01*
X155342740Y-105566801D01*
X155343640Y-105575972D01*
X155364041Y-105770069D01*
X155376068Y-105828658D01*
X155387277Y-105887423D01*
X155389941Y-105896245D01*
X155447653Y-106082683D01*
X155470838Y-106137838D01*
X155493242Y-106193291D01*
X155497568Y-106201427D01*
X155590393Y-106373104D01*
X155623846Y-106422699D01*
X155656600Y-106472753D01*
X155662424Y-106479894D01*
X155732830Y-106565000D01*
X155527000Y-106565000D01*
X155527000Y-107923000D01*
X155547000Y-107923000D01*
X155547000Y-108177000D01*
X155527000Y-108177000D01*
X155527000Y-109535000D01*
X155852000Y-109535000D01*
X156139269Y-109481690D01*
X156340000Y-109401553D01*
X156340001Y-113598447D01*
X156139269Y-113518310D01*
X155852000Y-113465000D01*
X155527000Y-113465000D01*
X155527000Y-114823000D01*
X155547000Y-114823000D01*
X155547000Y-115077000D01*
X155527000Y-115077000D01*
X155527000Y-116435000D01*
X155732663Y-116435000D01*
X155655616Y-116529469D01*
X155622534Y-116579262D01*
X155588716Y-116628651D01*
X155584333Y-116636757D01*
X155492708Y-116809079D01*
X155469909Y-116864394D01*
X155446348Y-116919366D01*
X155443623Y-116928169D01*
X155387214Y-117115005D01*
X155375594Y-117173693D01*
X155363158Y-117232196D01*
X155362195Y-117241361D01*
X155343150Y-117435595D01*
X155343150Y-117435608D01*
X155340001Y-117467581D01*
X155340000Y-122095846D01*
X154978839Y-121555330D01*
X154444670Y-121021161D01*
X153816554Y-120601467D01*
X153118628Y-120312377D01*
X152377715Y-120165000D01*
X151622285Y-120165000D01*
X150881372Y-120312377D01*
X150183446Y-120601467D01*
X149555330Y-121021161D01*
X149021161Y-121555330D01*
X148601467Y-122183446D01*
X148312377Y-122881372D01*
X148165000Y-123622285D01*
X148165000Y-124377715D01*
X148312377Y-125118628D01*
X148601467Y-125816554D01*
X149021161Y-126444670D01*
X149555330Y-126978839D01*
X150095845Y-127340000D01*
X133904155Y-127340000D01*
X134444670Y-126978839D01*
X134978839Y-126444670D01*
X135398533Y-125816554D01*
X135687623Y-125118628D01*
X135835000Y-124377715D01*
X135835000Y-123789721D01*
X137285000Y-123789721D01*
X137285000Y-124210279D01*
X137367047Y-124622756D01*
X137527988Y-125011302D01*
X137761637Y-125360983D01*
X138059017Y-125658363D01*
X138408698Y-125892012D01*
X138797244Y-126052953D01*
X139209721Y-126135000D01*
X139630279Y-126135000D01*
X140042756Y-126052953D01*
X140431302Y-125892012D01*
X140780983Y-125658363D01*
X141078363Y-125360983D01*
X141312012Y-125011302D01*
X141472953Y-124622756D01*
X141555000Y-124210279D01*
X141555000Y-123789721D01*
X141472953Y-123377244D01*
X141312012Y-122988698D01*
X141078363Y-122639017D01*
X140939346Y-122500000D01*
X142361928Y-122500000D01*
X142361928Y-125500000D01*
X142374188Y-125624482D01*
X142410498Y-125744180D01*
X142469463Y-125854494D01*
X142548815Y-125951185D01*
X142645506Y-126030537D01*
X142755820Y-126089502D01*
X142875518Y-126125812D01*
X143000000Y-126138072D01*
X146000000Y-126138072D01*
X146124482Y-126125812D01*
X146244180Y-126089502D01*
X146354494Y-126030537D01*
X146451185Y-125951185D01*
X146530537Y-125854494D01*
X146589502Y-125744180D01*
X146625812Y-125624482D01*
X146638072Y-125500000D01*
X146638072Y-122500000D01*
X146625812Y-122375518D01*
X146589502Y-122255820D01*
X146530537Y-122145506D01*
X146451185Y-122048815D01*
X146354494Y-121969463D01*
X146244180Y-121910498D01*
X146124482Y-121874188D01*
X146000000Y-121861928D01*
X143000000Y-121861928D01*
X142875518Y-121874188D01*
X142755820Y-121910498D01*
X142645506Y-121969463D01*
X142548815Y-122048815D01*
X142469463Y-122145506D01*
X142410498Y-122255820D01*
X142374188Y-122375518D01*
X142361928Y-122500000D01*
X140939346Y-122500000D01*
X140780983Y-122341637D01*
X140431302Y-122107988D01*
X140042756Y-121947047D01*
X139630279Y-121865000D01*
X139209721Y-121865000D01*
X138797244Y-121947047D01*
X138408698Y-122107988D01*
X138059017Y-122341637D01*
X137761637Y-122639017D01*
X137527988Y-122988698D01*
X137367047Y-123377244D01*
X137285000Y-123789721D01*
X135835000Y-123789721D01*
X135835000Y-123622285D01*
X135687623Y-122881372D01*
X135398533Y-122183446D01*
X134978839Y-121555330D01*
X134444670Y-121021161D01*
X133816554Y-120601467D01*
X133118628Y-120312377D01*
X132377715Y-120165000D01*
X131622285Y-120165000D01*
X130881372Y-120312377D01*
X130183446Y-120601467D01*
X129555330Y-121021161D01*
X129021161Y-121555330D01*
X128660000Y-122095845D01*
X128660000Y-115080000D01*
X129861928Y-115080000D01*
X129861928Y-118080000D01*
X129874188Y-118204482D01*
X129910498Y-118324180D01*
X129969463Y-118434494D01*
X130048815Y-118531185D01*
X130145506Y-118610537D01*
X130255820Y-118669502D01*
X130375518Y-118705812D01*
X130500000Y-118718072D01*
X133500000Y-118718072D01*
X133624482Y-118705812D01*
X133744180Y-118669502D01*
X133854494Y-118610537D01*
X133951185Y-118531185D01*
X134030537Y-118434494D01*
X134089502Y-118324180D01*
X134125812Y-118204482D01*
X134138072Y-118080000D01*
X134138072Y-117712874D01*
X134436205Y-118011008D01*
X134459999Y-118040001D01*
X134488992Y-118063795D01*
X134488996Y-118063799D01*
X134514701Y-118084894D01*
X134575724Y-118134974D01*
X134707753Y-118205546D01*
X134851014Y-118249003D01*
X134962667Y-118260000D01*
X134962676Y-118260000D01*
X134999999Y-118263676D01*
X135037322Y-118260000D01*
X142462678Y-118260000D01*
X142500000Y-118263676D01*
X142537322Y-118260000D01*
X142537333Y-118260000D01*
X142648986Y-118249003D01*
X142792247Y-118205546D01*
X142924276Y-118134974D01*
X143040001Y-118040001D01*
X143063803Y-118010998D01*
X143761002Y-117313799D01*
X143790001Y-117290001D01*
X143851600Y-117214942D01*
X143866111Y-117213513D01*
X144146034Y-117128599D01*
X144404014Y-116990706D01*
X144630134Y-116805134D01*
X144815706Y-116579014D01*
X144953599Y-116321034D01*
X145038513Y-116041111D01*
X145067185Y-115750000D01*
X145038513Y-115458889D01*
X144953599Y-115178966D01*
X144831215Y-114950000D01*
X145482815Y-114950000D01*
X145511487Y-115241111D01*
X145596401Y-115521034D01*
X145734294Y-115779014D01*
X145919866Y-116005134D01*
X146145986Y-116190706D01*
X146403966Y-116328599D01*
X146683889Y-116413513D01*
X146902050Y-116435000D01*
X147697950Y-116435000D01*
X147916111Y-116413513D01*
X148196034Y-116328599D01*
X148454014Y-116190706D01*
X148650000Y-116029864D01*
X148845986Y-116190706D01*
X149103966Y-116328599D01*
X149383889Y-116413513D01*
X149602050Y-116435000D01*
X150397950Y-116435000D01*
X150616111Y-116413513D01*
X150896034Y-116328599D01*
X151154014Y-116190706D01*
X151350000Y-116029864D01*
X151545986Y-116190706D01*
X151803966Y-116328599D01*
X152083889Y-116413513D01*
X152302050Y-116435000D01*
X153097950Y-116435000D01*
X153316111Y-116413513D01*
X153596034Y-116328599D01*
X153854014Y-116190706D01*
X154054274Y-116026357D01*
X154144381Y-116114176D01*
X154389382Y-116273361D01*
X154660731Y-116381690D01*
X154948000Y-116435000D01*
X155273000Y-116435000D01*
X155273000Y-115077000D01*
X155253000Y-115077000D01*
X155253000Y-114823000D01*
X155273000Y-114823000D01*
X155273000Y-113465000D01*
X154948000Y-113465000D01*
X154660731Y-113518310D01*
X154389382Y-113626639D01*
X154144381Y-113785824D01*
X154054274Y-113873643D01*
X153854014Y-113709294D01*
X153596034Y-113571401D01*
X153316111Y-113486487D01*
X153097950Y-113465000D01*
X152302050Y-113465000D01*
X152083889Y-113486487D01*
X151803966Y-113571401D01*
X151545986Y-113709294D01*
X151350000Y-113870136D01*
X151154014Y-113709294D01*
X150896034Y-113571401D01*
X150616111Y-113486487D01*
X150397950Y-113465000D01*
X149602050Y-113465000D01*
X149383889Y-113486487D01*
X149103966Y-113571401D01*
X148845986Y-113709294D01*
X148650000Y-113870136D01*
X148454014Y-113709294D01*
X148196034Y-113571401D01*
X147916111Y-113486487D01*
X147697950Y-113465000D01*
X146902050Y-113465000D01*
X146683889Y-113486487D01*
X146403966Y-113571401D01*
X146145986Y-113709294D01*
X145919866Y-113894866D01*
X145734294Y-114120986D01*
X145596401Y-114378966D01*
X145511487Y-114658889D01*
X145482815Y-114950000D01*
X144831215Y-114950000D01*
X144815706Y-114920986D01*
X144630134Y-114694866D01*
X144404014Y-114509294D01*
X144146034Y-114371401D01*
X143866111Y-114286487D01*
X143647950Y-114265000D01*
X142852050Y-114265000D01*
X142633889Y-114286487D01*
X142353966Y-114371401D01*
X142095986Y-114509294D01*
X141869866Y-114694866D01*
X141684294Y-114920986D01*
X141546401Y-115178966D01*
X141461487Y-115458889D01*
X141432815Y-115750000D01*
X141461487Y-116041111D01*
X141546401Y-116321034D01*
X141684294Y-116579014D01*
X141816412Y-116740000D01*
X135314802Y-116740000D01*
X134643803Y-116069002D01*
X134620001Y-116039999D01*
X134504276Y-115945026D01*
X134372247Y-115874454D01*
X134228986Y-115830997D01*
X134138072Y-115822043D01*
X134138072Y-115080000D01*
X134125812Y-114955518D01*
X134089502Y-114835820D01*
X134030537Y-114725506D01*
X133951185Y-114628815D01*
X133854494Y-114549463D01*
X133744180Y-114490498D01*
X133624482Y-114454188D01*
X133500000Y-114441928D01*
X130500000Y-114441928D01*
X130375518Y-114454188D01*
X130255820Y-114490498D01*
X130145506Y-114549463D01*
X130048815Y-114628815D01*
X129969463Y-114725506D01*
X129910498Y-114835820D01*
X129874188Y-114955518D01*
X129861928Y-115080000D01*
X128660000Y-115080000D01*
X128660000Y-112991653D01*
X130687952Y-112991653D01*
X130843962Y-113307214D01*
X131218745Y-113498020D01*
X131623551Y-113612044D01*
X132042824Y-113644902D01*
X132460451Y-113595334D01*
X132824082Y-113477051D01*
X138015000Y-113477051D01*
X138015000Y-114322950D01*
X138036487Y-114541111D01*
X138121401Y-114821034D01*
X138259294Y-115079014D01*
X138444866Y-115305134D01*
X138670987Y-115490706D01*
X138928967Y-115628599D01*
X139208890Y-115713513D01*
X139500000Y-115742185D01*
X139791111Y-115713513D01*
X140071034Y-115628599D01*
X140329014Y-115490706D01*
X140555134Y-115305134D01*
X140740706Y-115079014D01*
X140878599Y-114821034D01*
X140963513Y-114541110D01*
X140985000Y-114322949D01*
X140985000Y-113477050D01*
X140963513Y-113258889D01*
X140878599Y-112978966D01*
X140740706Y-112720986D01*
X140555134Y-112494866D01*
X140329013Y-112309294D01*
X140071033Y-112171401D01*
X139791110Y-112086487D01*
X139500000Y-112057815D01*
X139208889Y-112086487D01*
X138928966Y-112171401D01*
X138670986Y-112309294D01*
X138444866Y-112494866D01*
X138259294Y-112720987D01*
X138121401Y-112978967D01*
X138036487Y-113258890D01*
X138015000Y-113477051D01*
X132824082Y-113477051D01*
X132860383Y-113465243D01*
X133156038Y-113307214D01*
X133312048Y-112991653D01*
X132000000Y-111679605D01*
X130687952Y-112991653D01*
X128660000Y-112991653D01*
X128660000Y-111542824D01*
X129855098Y-111542824D01*
X129904666Y-111960451D01*
X130034757Y-112360383D01*
X130192786Y-112656038D01*
X130508347Y-112812048D01*
X131820395Y-111500000D01*
X132179605Y-111500000D01*
X133491653Y-112812048D01*
X133807214Y-112656038D01*
X133998020Y-112281255D01*
X134112044Y-111876449D01*
X134144902Y-111457176D01*
X134095334Y-111039549D01*
X133965243Y-110639617D01*
X133807214Y-110343962D01*
X133491653Y-110187952D01*
X132179605Y-111500000D01*
X131820395Y-111500000D01*
X130508347Y-110187952D01*
X130192786Y-110343962D01*
X130001980Y-110718745D01*
X129887956Y-111123551D01*
X129855098Y-111542824D01*
X128660000Y-111542824D01*
X128660000Y-110008347D01*
X130687952Y-110008347D01*
X132000000Y-111320395D01*
X133312048Y-110008347D01*
X133156038Y-109692786D01*
X132781255Y-109501980D01*
X132376449Y-109387956D01*
X131957176Y-109355098D01*
X131539549Y-109404666D01*
X131139617Y-109534757D01*
X130843962Y-109692786D01*
X130687952Y-110008347D01*
X128660000Y-110008347D01*
X128660000Y-108677051D01*
X138015000Y-108677051D01*
X138015000Y-109522950D01*
X138036487Y-109741111D01*
X138121401Y-110021034D01*
X138259294Y-110279014D01*
X138444866Y-110505134D01*
X138670987Y-110690706D01*
X138928967Y-110828599D01*
X139208890Y-110913513D01*
X139500000Y-110942185D01*
X139791111Y-110913513D01*
X140071034Y-110828599D01*
X140329014Y-110690706D01*
X140555134Y-110505134D01*
X140740706Y-110279014D01*
X140878599Y-110021034D01*
X140963513Y-109741110D01*
X140985000Y-109522949D01*
X140985000Y-108677050D01*
X140963513Y-108458889D01*
X140878599Y-108178966D01*
X140740706Y-107920986D01*
X140555134Y-107694866D01*
X140329013Y-107509294D01*
X140071033Y-107371401D01*
X139791110Y-107286487D01*
X139500000Y-107257815D01*
X139208889Y-107286487D01*
X138928966Y-107371401D01*
X138670986Y-107509294D01*
X138444866Y-107694866D01*
X138259294Y-107920987D01*
X138121401Y-108178967D01*
X138036487Y-108458890D01*
X138015000Y-108677051D01*
X128660000Y-108677051D01*
X128660000Y-106209721D01*
X129865000Y-106209721D01*
X129865000Y-106630279D01*
X129947047Y-107042756D01*
X130107988Y-107431302D01*
X130341637Y-107780983D01*
X130639017Y-108078363D01*
X130988698Y-108312012D01*
X131377244Y-108472953D01*
X131789721Y-108555000D01*
X132210279Y-108555000D01*
X132622756Y-108472953D01*
X133011302Y-108312012D01*
X133360983Y-108078363D01*
X133658363Y-107780983D01*
X133892012Y-107431302D01*
X133996105Y-107180000D01*
X134042678Y-107180000D01*
X134080000Y-107183676D01*
X134117322Y-107180000D01*
X134117333Y-107180000D01*
X134228986Y-107169003D01*
X134372247Y-107125546D01*
X134504276Y-107054974D01*
X134620001Y-106960001D01*
X134643803Y-106930998D01*
X135314802Y-106260000D01*
X141816412Y-106260000D01*
X141684294Y-106420986D01*
X141546401Y-106678966D01*
X141461487Y-106958889D01*
X141432815Y-107250000D01*
X141461487Y-107541111D01*
X141546401Y-107821034D01*
X141684294Y-108079014D01*
X141869866Y-108305134D01*
X142095986Y-108490706D01*
X142353966Y-108628599D01*
X142633889Y-108713513D01*
X142852050Y-108735000D01*
X143647950Y-108735000D01*
X143866111Y-108713513D01*
X144146034Y-108628599D01*
X144404014Y-108490706D01*
X144630134Y-108305134D01*
X144815706Y-108079014D01*
X144831214Y-108050000D01*
X145482815Y-108050000D01*
X145511487Y-108341111D01*
X145596401Y-108621034D01*
X145734294Y-108879014D01*
X145919866Y-109105134D01*
X146145986Y-109290706D01*
X146403966Y-109428599D01*
X146683889Y-109513513D01*
X146902050Y-109535000D01*
X147697950Y-109535000D01*
X147916111Y-109513513D01*
X148196034Y-109428599D01*
X148454014Y-109290706D01*
X148650000Y-109129864D01*
X148845986Y-109290706D01*
X149103966Y-109428599D01*
X149383889Y-109513513D01*
X149602050Y-109535000D01*
X150397950Y-109535000D01*
X150616111Y-109513513D01*
X150896034Y-109428599D01*
X151154014Y-109290706D01*
X151350000Y-109129864D01*
X151545986Y-109290706D01*
X151803966Y-109428599D01*
X152083889Y-109513513D01*
X152302050Y-109535000D01*
X153097950Y-109535000D01*
X153316111Y-109513513D01*
X153596034Y-109428599D01*
X153854014Y-109290706D01*
X154054274Y-109126357D01*
X154144381Y-109214176D01*
X154389382Y-109373361D01*
X154660731Y-109481690D01*
X154948000Y-109535000D01*
X155273000Y-109535000D01*
X155273000Y-108177000D01*
X155253000Y-108177000D01*
X155253000Y-107923000D01*
X155273000Y-107923000D01*
X155273000Y-106565000D01*
X154948000Y-106565000D01*
X154660731Y-106618310D01*
X154389382Y-106726639D01*
X154144381Y-106885824D01*
X154054274Y-106973643D01*
X153854014Y-106809294D01*
X153596034Y-106671401D01*
X153316111Y-106586487D01*
X153097950Y-106565000D01*
X152302050Y-106565000D01*
X152083889Y-106586487D01*
X151803966Y-106671401D01*
X151545986Y-106809294D01*
X151350000Y-106970136D01*
X151154014Y-106809294D01*
X150896034Y-106671401D01*
X150616111Y-106586487D01*
X150397950Y-106565000D01*
X149602050Y-106565000D01*
X149383889Y-106586487D01*
X149103966Y-106671401D01*
X148845986Y-106809294D01*
X148650000Y-106970136D01*
X148454014Y-106809294D01*
X148196034Y-106671401D01*
X147916111Y-106586487D01*
X147697950Y-106565000D01*
X146902050Y-106565000D01*
X146683889Y-106586487D01*
X146403966Y-106671401D01*
X146145986Y-106809294D01*
X145919866Y-106994866D01*
X145734294Y-107220986D01*
X145596401Y-107478966D01*
X145511487Y-107758889D01*
X145482815Y-108050000D01*
X144831214Y-108050000D01*
X144953599Y-107821034D01*
X145038513Y-107541111D01*
X145067185Y-107250000D01*
X145038513Y-106958889D01*
X144953599Y-106678966D01*
X144815706Y-106420986D01*
X144630134Y-106194866D01*
X144404014Y-106009294D01*
X144146034Y-105871401D01*
X143866111Y-105786487D01*
X143851600Y-105785058D01*
X143790001Y-105709999D01*
X143761002Y-105686201D01*
X143063803Y-104989002D01*
X143040001Y-104959999D01*
X142924276Y-104865026D01*
X142792247Y-104794454D01*
X142648986Y-104750997D01*
X142537333Y-104740000D01*
X142537322Y-104740000D01*
X142500000Y-104736324D01*
X142462678Y-104740000D01*
X135037322Y-104740000D01*
X134999999Y-104736324D01*
X134962676Y-104740000D01*
X134962667Y-104740000D01*
X134851014Y-104750997D01*
X134707753Y-104794454D01*
X134575724Y-104865026D01*
X134575722Y-104865027D01*
X134575723Y-104865027D01*
X134488996Y-104936201D01*
X134488992Y-104936205D01*
X134459999Y-104959999D01*
X134436205Y-104988992D01*
X133928474Y-105496724D01*
X133892012Y-105408698D01*
X133658363Y-105059017D01*
X133360983Y-104761637D01*
X133011302Y-104527988D01*
X132622756Y-104367047D01*
X132210279Y-104285000D01*
X131789721Y-104285000D01*
X131377244Y-104367047D01*
X130988698Y-104527988D01*
X130639017Y-104761637D01*
X130341637Y-105059017D01*
X130107988Y-105408698D01*
X129947047Y-105797244D01*
X129865000Y-106209721D01*
X128660000Y-106209721D01*
X128660000Y-100904155D01*
X129021161Y-101444670D01*
X129555330Y-101978839D01*
X130183446Y-102398533D01*
X130881372Y-102687623D01*
X131622285Y-102835000D01*
X132377715Y-102835000D01*
X133118628Y-102687623D01*
X133816554Y-102398533D01*
X134444670Y-101978839D01*
X134978839Y-101444670D01*
X135398533Y-100816554D01*
X135687623Y-100118628D01*
X135835000Y-99377715D01*
X135835000Y-98622285D01*
X135687623Y-97881372D01*
X135529654Y-97500000D01*
X137361928Y-97500000D01*
X137361928Y-100500000D01*
X137374188Y-100624482D01*
X137410498Y-100744180D01*
X137469463Y-100854494D01*
X137548815Y-100951185D01*
X137645506Y-101030537D01*
X137755820Y-101089502D01*
X137875518Y-101125812D01*
X138000000Y-101138072D01*
X141000000Y-101138072D01*
X141124482Y-101125812D01*
X141244180Y-101089502D01*
X141354494Y-101030537D01*
X141451185Y-100951185D01*
X141530537Y-100854494D01*
X141589502Y-100744180D01*
X141625812Y-100624482D01*
X141638072Y-100500000D01*
X141638072Y-98789721D01*
X142445000Y-98789721D01*
X142445000Y-99210279D01*
X142527047Y-99622756D01*
X142687988Y-100011302D01*
X142921637Y-100360983D01*
X143219017Y-100658363D01*
X143568698Y-100892012D01*
X143957244Y-101052953D01*
X144369721Y-101135000D01*
X144790279Y-101135000D01*
X145202756Y-101052953D01*
X145591302Y-100892012D01*
X145940983Y-100658363D01*
X146238363Y-100360983D01*
X146472012Y-100011302D01*
X146632953Y-99622756D01*
X146715000Y-99210279D01*
X146715000Y-98789721D01*
X146632953Y-98377244D01*
X146472012Y-97988698D01*
X146238363Y-97639017D01*
X145940983Y-97341637D01*
X145591302Y-97107988D01*
X145202756Y-96947047D01*
X144790279Y-96865000D01*
X144369721Y-96865000D01*
X143957244Y-96947047D01*
X143568698Y-97107988D01*
X143219017Y-97341637D01*
X142921637Y-97639017D01*
X142687988Y-97988698D01*
X142527047Y-98377244D01*
X142445000Y-98789721D01*
X141638072Y-98789721D01*
X141638072Y-97500000D01*
X141625812Y-97375518D01*
X141589502Y-97255820D01*
X141530537Y-97145506D01*
X141451185Y-97048815D01*
X141354494Y-96969463D01*
X141244180Y-96910498D01*
X141124482Y-96874188D01*
X141000000Y-96861928D01*
X138000000Y-96861928D01*
X137875518Y-96874188D01*
X137755820Y-96910498D01*
X137645506Y-96969463D01*
X137548815Y-97048815D01*
X137469463Y-97145506D01*
X137410498Y-97255820D01*
X137374188Y-97375518D01*
X137361928Y-97500000D01*
X135529654Y-97500000D01*
X135398533Y-97183446D01*
X134978839Y-96555330D01*
X134444670Y-96021161D01*
X133904155Y-95660000D01*
X150095845Y-95660000D01*
X149555330Y-96021161D01*
G04 #@! TA.AperFunction,Conductor*
D18*
G36*
X149555330Y-96021161D02*
G01*
X149021161Y-96555330D01*
X148601467Y-97183446D01*
X148312377Y-97881372D01*
X148165000Y-98622285D01*
X148165000Y-99377715D01*
X148312377Y-100118628D01*
X148601467Y-100816554D01*
X149021161Y-101444670D01*
X149555330Y-101978839D01*
X150183446Y-102398533D01*
X150881372Y-102687623D01*
X151622285Y-102835000D01*
X152377715Y-102835000D01*
X153118628Y-102687623D01*
X153816554Y-102398533D01*
X154444670Y-101978839D01*
X154978839Y-101444670D01*
X155340000Y-100904154D01*
X155340001Y-105532419D01*
X155342783Y-105560664D01*
X155342740Y-105566801D01*
X155343640Y-105575972D01*
X155364041Y-105770069D01*
X155376068Y-105828658D01*
X155387277Y-105887423D01*
X155389941Y-105896245D01*
X155447653Y-106082683D01*
X155470838Y-106137838D01*
X155493242Y-106193291D01*
X155497568Y-106201427D01*
X155590393Y-106373104D01*
X155623846Y-106422699D01*
X155656600Y-106472753D01*
X155662424Y-106479894D01*
X155732830Y-106565000D01*
X155527000Y-106565000D01*
X155527000Y-107923000D01*
X155547000Y-107923000D01*
X155547000Y-108177000D01*
X155527000Y-108177000D01*
X155527000Y-109535000D01*
X155852000Y-109535000D01*
X156139269Y-109481690D01*
X156340000Y-109401553D01*
X156340001Y-113598447D01*
X156139269Y-113518310D01*
X155852000Y-113465000D01*
X155527000Y-113465000D01*
X155527000Y-114823000D01*
X155547000Y-114823000D01*
X155547000Y-115077000D01*
X155527000Y-115077000D01*
X155527000Y-116435000D01*
X155732663Y-116435000D01*
X155655616Y-116529469D01*
X155622534Y-116579262D01*
X155588716Y-116628651D01*
X155584333Y-116636757D01*
X155492708Y-116809079D01*
X155469909Y-116864394D01*
X155446348Y-116919366D01*
X155443623Y-116928169D01*
X155387214Y-117115005D01*
X155375594Y-117173693D01*
X155363158Y-117232196D01*
X155362195Y-117241361D01*
X155343150Y-117435595D01*
X155343150Y-117435608D01*
X155340001Y-117467581D01*
X155340000Y-122095846D01*
X154978839Y-121555330D01*
X154444670Y-121021161D01*
X153816554Y-120601467D01*
X153118628Y-120312377D01*
X152377715Y-120165000D01*
X151622285Y-120165000D01*
X150881372Y-120312377D01*
X150183446Y-120601467D01*
X149555330Y-121021161D01*
X149021161Y-121555330D01*
X148601467Y-122183446D01*
X148312377Y-122881372D01*
X148165000Y-123622285D01*
X148165000Y-124377715D01*
X148312377Y-125118628D01*
X148601467Y-125816554D01*
X149021161Y-126444670D01*
X149555330Y-126978839D01*
X150095845Y-127340000D01*
X133904155Y-127340000D01*
X134444670Y-126978839D01*
X134978839Y-126444670D01*
X135398533Y-125816554D01*
X135687623Y-125118628D01*
X135835000Y-124377715D01*
X135835000Y-123789721D01*
X137285000Y-123789721D01*
X137285000Y-124210279D01*
X137367047Y-124622756D01*
X137527988Y-125011302D01*
X137761637Y-125360983D01*
X138059017Y-125658363D01*
X138408698Y-125892012D01*
X138797244Y-126052953D01*
X139209721Y-126135000D01*
X139630279Y-126135000D01*
X140042756Y-126052953D01*
X140431302Y-125892012D01*
X140780983Y-125658363D01*
X141078363Y-125360983D01*
X141312012Y-125011302D01*
X141472953Y-124622756D01*
X141555000Y-124210279D01*
X141555000Y-123789721D01*
X141472953Y-123377244D01*
X141312012Y-122988698D01*
X141078363Y-122639017D01*
X140939346Y-122500000D01*
X142361928Y-122500000D01*
X142361928Y-125500000D01*
X142374188Y-125624482D01*
X142410498Y-125744180D01*
X142469463Y-125854494D01*
X142548815Y-125951185D01*
X142645506Y-126030537D01*
X142755820Y-126089502D01*
X142875518Y-126125812D01*
X143000000Y-126138072D01*
X146000000Y-126138072D01*
X146124482Y-126125812D01*
X146244180Y-126089502D01*
X146354494Y-126030537D01*
X146451185Y-125951185D01*
X146530537Y-125854494D01*
X146589502Y-125744180D01*
X146625812Y-125624482D01*
X146638072Y-125500000D01*
X146638072Y-122500000D01*
X146625812Y-122375518D01*
X146589502Y-122255820D01*
X146530537Y-122145506D01*
X146451185Y-122048815D01*
X146354494Y-121969463D01*
X146244180Y-121910498D01*
X146124482Y-121874188D01*
X146000000Y-121861928D01*
X143000000Y-121861928D01*
X142875518Y-121874188D01*
X142755820Y-121910498D01*
X142645506Y-121969463D01*
X142548815Y-122048815D01*
X142469463Y-122145506D01*
X142410498Y-122255820D01*
X142374188Y-122375518D01*
X142361928Y-122500000D01*
X140939346Y-122500000D01*
X140780983Y-122341637D01*
X140431302Y-122107988D01*
X140042756Y-121947047D01*
X139630279Y-121865000D01*
X139209721Y-121865000D01*
X138797244Y-121947047D01*
X138408698Y-122107988D01*
X138059017Y-122341637D01*
X137761637Y-122639017D01*
X137527988Y-122988698D01*
X137367047Y-123377244D01*
X137285000Y-123789721D01*
X135835000Y-123789721D01*
X135835000Y-123622285D01*
X135687623Y-122881372D01*
X135398533Y-122183446D01*
X134978839Y-121555330D01*
X134444670Y-121021161D01*
X133816554Y-120601467D01*
X133118628Y-120312377D01*
X132377715Y-120165000D01*
X131622285Y-120165000D01*
X130881372Y-120312377D01*
X130183446Y-120601467D01*
X129555330Y-121021161D01*
X129021161Y-121555330D01*
X128660000Y-122095845D01*
X128660000Y-115080000D01*
X129861928Y-115080000D01*
X129861928Y-118080000D01*
X129874188Y-118204482D01*
X129910498Y-118324180D01*
X129969463Y-118434494D01*
X130048815Y-118531185D01*
X130145506Y-118610537D01*
X130255820Y-118669502D01*
X130375518Y-118705812D01*
X130500000Y-118718072D01*
X133500000Y-118718072D01*
X133624482Y-118705812D01*
X133744180Y-118669502D01*
X133854494Y-118610537D01*
X133951185Y-118531185D01*
X134030537Y-118434494D01*
X134089502Y-118324180D01*
X134125812Y-118204482D01*
X134138072Y-118080000D01*
X134138072Y-117712874D01*
X134436205Y-118011008D01*
X134459999Y-118040001D01*
X134488992Y-118063795D01*
X134488996Y-118063799D01*
X134514701Y-118084894D01*
X134575724Y-118134974D01*
X134707753Y-118205546D01*
X134851014Y-118249003D01*
X134962667Y-118260000D01*
X134962676Y-118260000D01*
X134999999Y-118263676D01*
X135037322Y-118260000D01*
X142462678Y-118260000D01*
X142500000Y-118263676D01*
X142537322Y-118260000D01*
X142537333Y-118260000D01*
X142648986Y-118249003D01*
X142792247Y-118205546D01*
X142924276Y-118134974D01*
X143040001Y-118040001D01*
X143063803Y-118010998D01*
X143761002Y-117313799D01*
X143790001Y-117290001D01*
X143851600Y-117214942D01*
X143866111Y-117213513D01*
X144146034Y-117128599D01*
X144404014Y-116990706D01*
X144630134Y-116805134D01*
X144815706Y-116579014D01*
X144953599Y-116321034D01*
X145038513Y-116041111D01*
X145067185Y-115750000D01*
X145038513Y-115458889D01*
X144953599Y-115178966D01*
X144831215Y-114950000D01*
X145482815Y-114950000D01*
X145511487Y-115241111D01*
X145596401Y-115521034D01*
X145734294Y-115779014D01*
X145919866Y-116005134D01*
X146145986Y-116190706D01*
X146403966Y-116328599D01*
X146683889Y-116413513D01*
X146902050Y-116435000D01*
X147697950Y-116435000D01*
X147916111Y-116413513D01*
X148196034Y-116328599D01*
X148454014Y-116190706D01*
X148650000Y-116029864D01*
X148845986Y-116190706D01*
X149103966Y-116328599D01*
X149383889Y-116413513D01*
X149602050Y-116435000D01*
X150397950Y-116435000D01*
X150616111Y-116413513D01*
X150896034Y-116328599D01*
X151154014Y-116190706D01*
X151350000Y-116029864D01*
X151545986Y-116190706D01*
X151803966Y-116328599D01*
X152083889Y-116413513D01*
X152302050Y-116435000D01*
X153097950Y-116435000D01*
X153316111Y-116413513D01*
X153596034Y-116328599D01*
X153854014Y-116190706D01*
X154054274Y-116026357D01*
X154144381Y-116114176D01*
X154389382Y-116273361D01*
X154660731Y-116381690D01*
X154948000Y-116435000D01*
X155273000Y-116435000D01*
X155273000Y-115077000D01*
X155253000Y-115077000D01*
X155253000Y-114823000D01*
X155273000Y-114823000D01*
X155273000Y-113465000D01*
X154948000Y-113465000D01*
X154660731Y-113518310D01*
X154389382Y-113626639D01*
X154144381Y-113785824D01*
X154054274Y-113873643D01*
X153854014Y-113709294D01*
X153596034Y-113571401D01*
X153316111Y-113486487D01*
X153097950Y-113465000D01*
X152302050Y-113465000D01*
X152083889Y-113486487D01*
X151803966Y-113571401D01*
X151545986Y-113709294D01*
X151350000Y-113870136D01*
X151154014Y-113709294D01*
X150896034Y-113571401D01*
X150616111Y-113486487D01*
X150397950Y-113465000D01*
X149602050Y-113465000D01*
X149383889Y-113486487D01*
X149103966Y-113571401D01*
X148845986Y-113709294D01*
X148650000Y-113870136D01*
X148454014Y-113709294D01*
X148196034Y-113571401D01*
X147916111Y-113486487D01*
X147697950Y-113465000D01*
X146902050Y-113465000D01*
X146683889Y-113486487D01*
X146403966Y-113571401D01*
X146145986Y-113709294D01*
X145919866Y-113894866D01*
X145734294Y-114120986D01*
X145596401Y-114378966D01*
X145511487Y-114658889D01*
X145482815Y-114950000D01*
X144831215Y-114950000D01*
X144815706Y-114920986D01*
X144630134Y-114694866D01*
X144404014Y-114509294D01*
X144146034Y-114371401D01*
X143866111Y-114286487D01*
X143647950Y-114265000D01*
X142852050Y-114265000D01*
X142633889Y-114286487D01*
X142353966Y-114371401D01*
X142095986Y-114509294D01*
X141869866Y-114694866D01*
X141684294Y-114920986D01*
X141546401Y-115178966D01*
X141461487Y-115458889D01*
X141432815Y-115750000D01*
X141461487Y-116041111D01*
X141546401Y-116321034D01*
X141684294Y-116579014D01*
X141816412Y-116740000D01*
X135314802Y-116740000D01*
X134643803Y-116069002D01*
X134620001Y-116039999D01*
X134504276Y-115945026D01*
X134372247Y-115874454D01*
X134228986Y-115830997D01*
X134138072Y-115822043D01*
X134138072Y-115080000D01*
X134125812Y-114955518D01*
X134089502Y-114835820D01*
X134030537Y-114725506D01*
X133951185Y-114628815D01*
X133854494Y-114549463D01*
X133744180Y-114490498D01*
X133624482Y-114454188D01*
X133500000Y-114441928D01*
X130500000Y-114441928D01*
X130375518Y-114454188D01*
X130255820Y-114490498D01*
X130145506Y-114549463D01*
X130048815Y-114628815D01*
X129969463Y-114725506D01*
X129910498Y-114835820D01*
X129874188Y-114955518D01*
X129861928Y-115080000D01*
X128660000Y-115080000D01*
X128660000Y-112991653D01*
X130687952Y-112991653D01*
X130843962Y-113307214D01*
X131218745Y-113498020D01*
X131623551Y-113612044D01*
X132042824Y-113644902D01*
X132460451Y-113595334D01*
X132824082Y-113477051D01*
X138015000Y-113477051D01*
X138015000Y-114322950D01*
X138036487Y-114541111D01*
X138121401Y-114821034D01*
X138259294Y-115079014D01*
X138444866Y-115305134D01*
X138670987Y-115490706D01*
X138928967Y-115628599D01*
X139208890Y-115713513D01*
X139500000Y-115742185D01*
X139791111Y-115713513D01*
X140071034Y-115628599D01*
X140329014Y-115490706D01*
X140555134Y-115305134D01*
X140740706Y-115079014D01*
X140878599Y-114821034D01*
X140963513Y-114541110D01*
X140985000Y-114322949D01*
X140985000Y-113477050D01*
X140963513Y-113258889D01*
X140878599Y-112978966D01*
X140740706Y-112720986D01*
X140555134Y-112494866D01*
X140329013Y-112309294D01*
X140071033Y-112171401D01*
X139791110Y-112086487D01*
X139500000Y-112057815D01*
X139208889Y-112086487D01*
X138928966Y-112171401D01*
X138670986Y-112309294D01*
X138444866Y-112494866D01*
X138259294Y-112720987D01*
X138121401Y-112978967D01*
X138036487Y-113258890D01*
X138015000Y-113477051D01*
X132824082Y-113477051D01*
X132860383Y-113465243D01*
X133156038Y-113307214D01*
X133312048Y-112991653D01*
X132000000Y-111679605D01*
X130687952Y-112991653D01*
X128660000Y-112991653D01*
X128660000Y-111542824D01*
X129855098Y-111542824D01*
X129904666Y-111960451D01*
X130034757Y-112360383D01*
X130192786Y-112656038D01*
X130508347Y-112812048D01*
X131820395Y-111500000D01*
X132179605Y-111500000D01*
X133491653Y-112812048D01*
X133807214Y-112656038D01*
X133998020Y-112281255D01*
X134112044Y-111876449D01*
X134144902Y-111457176D01*
X134095334Y-111039549D01*
X133965243Y-110639617D01*
X133807214Y-110343962D01*
X133491653Y-110187952D01*
X132179605Y-111500000D01*
X131820395Y-111500000D01*
X130508347Y-110187952D01*
X130192786Y-110343962D01*
X130001980Y-110718745D01*
X129887956Y-111123551D01*
X129855098Y-111542824D01*
X128660000Y-111542824D01*
X128660000Y-110008347D01*
X130687952Y-110008347D01*
X132000000Y-111320395D01*
X133312048Y-110008347D01*
X133156038Y-109692786D01*
X132781255Y-109501980D01*
X132376449Y-109387956D01*
X131957176Y-109355098D01*
X131539549Y-109404666D01*
X131139617Y-109534757D01*
X130843962Y-109692786D01*
X130687952Y-110008347D01*
X128660000Y-110008347D01*
X128660000Y-108677051D01*
X138015000Y-108677051D01*
X138015000Y-109522950D01*
X138036487Y-109741111D01*
X138121401Y-110021034D01*
X138259294Y-110279014D01*
X138444866Y-110505134D01*
X138670987Y-110690706D01*
X138928967Y-110828599D01*
X139208890Y-110913513D01*
X139500000Y-110942185D01*
X139791111Y-110913513D01*
X140071034Y-110828599D01*
X140329014Y-110690706D01*
X140555134Y-110505134D01*
X140740706Y-110279014D01*
X140878599Y-110021034D01*
X140963513Y-109741110D01*
X140985000Y-109522949D01*
X140985000Y-108677050D01*
X140963513Y-108458889D01*
X140878599Y-108178966D01*
X140740706Y-107920986D01*
X140555134Y-107694866D01*
X140329013Y-107509294D01*
X140071033Y-107371401D01*
X139791110Y-107286487D01*
X139500000Y-107257815D01*
X139208889Y-107286487D01*
X138928966Y-107371401D01*
X138670986Y-107509294D01*
X138444866Y-107694866D01*
X138259294Y-107920987D01*
X138121401Y-108178967D01*
X138036487Y-108458890D01*
X138015000Y-108677051D01*
X128660000Y-108677051D01*
X128660000Y-106209721D01*
X129865000Y-106209721D01*
X129865000Y-106630279D01*
X129947047Y-107042756D01*
X130107988Y-107431302D01*
X130341637Y-107780983D01*
X130639017Y-108078363D01*
X130988698Y-108312012D01*
X131377244Y-108472953D01*
X131789721Y-108555000D01*
X132210279Y-108555000D01*
X132622756Y-108472953D01*
X133011302Y-108312012D01*
X133360983Y-108078363D01*
X133658363Y-107780983D01*
X133892012Y-107431302D01*
X133996105Y-107180000D01*
X134042678Y-107180000D01*
X134080000Y-107183676D01*
X134117322Y-107180000D01*
X134117333Y-107180000D01*
X134228986Y-107169003D01*
X134372247Y-107125546D01*
X134504276Y-107054974D01*
X134620001Y-106960001D01*
X134643803Y-106930998D01*
X135314802Y-106260000D01*
X141816412Y-106260000D01*
X141684294Y-106420986D01*
X141546401Y-106678966D01*
X141461487Y-106958889D01*
X141432815Y-107250000D01*
X141461487Y-107541111D01*
X141546401Y-107821034D01*
X141684294Y-108079014D01*
X141869866Y-108305134D01*
X142095986Y-108490706D01*
X142353966Y-108628599D01*
X142633889Y-108713513D01*
X142852050Y-108735000D01*
X143647950Y-108735000D01*
X143866111Y-108713513D01*
X144146034Y-108628599D01*
X144404014Y-108490706D01*
X144630134Y-108305134D01*
X144815706Y-108079014D01*
X144831214Y-108050000D01*
X145482815Y-108050000D01*
X145511487Y-108341111D01*
X145596401Y-108621034D01*
X145734294Y-108879014D01*
X145919866Y-109105134D01*
X146145986Y-109290706D01*
X146403966Y-109428599D01*
X146683889Y-109513513D01*
X146902050Y-109535000D01*
X147697950Y-109535000D01*
X147916111Y-109513513D01*
X148196034Y-109428599D01*
X148454014Y-109290706D01*
X148650000Y-109129864D01*
X148845986Y-109290706D01*
X149103966Y-109428599D01*
X149383889Y-109513513D01*
X149602050Y-109535000D01*
X150397950Y-109535000D01*
X150616111Y-109513513D01*
X150896034Y-109428599D01*
X151154014Y-109290706D01*
X151350000Y-109129864D01*
X151545986Y-109290706D01*
X151803966Y-109428599D01*
X152083889Y-109513513D01*
X152302050Y-109535000D01*
X153097950Y-109535000D01*
X153316111Y-109513513D01*
X153596034Y-109428599D01*
X153854014Y-109290706D01*
X154054274Y-109126357D01*
X154144381Y-109214176D01*
X154389382Y-109373361D01*
X154660731Y-109481690D01*
X154948000Y-109535000D01*
X155273000Y-109535000D01*
X155273000Y-108177000D01*
X155253000Y-108177000D01*
X155253000Y-107923000D01*
X155273000Y-107923000D01*
X155273000Y-106565000D01*
X154948000Y-106565000D01*
X154660731Y-106618310D01*
X154389382Y-106726639D01*
X154144381Y-106885824D01*
X154054274Y-106973643D01*
X153854014Y-106809294D01*
X153596034Y-106671401D01*
X153316111Y-106586487D01*
X153097950Y-106565000D01*
X152302050Y-106565000D01*
X152083889Y-106586487D01*
X151803966Y-106671401D01*
X151545986Y-106809294D01*
X151350000Y-106970136D01*
X151154014Y-106809294D01*
X150896034Y-106671401D01*
X150616111Y-106586487D01*
X150397950Y-106565000D01*
X149602050Y-106565000D01*
X149383889Y-106586487D01*
X149103966Y-106671401D01*
X148845986Y-106809294D01*
X148650000Y-106970136D01*
X148454014Y-106809294D01*
X148196034Y-106671401D01*
X147916111Y-106586487D01*
X147697950Y-106565000D01*
X146902050Y-106565000D01*
X146683889Y-106586487D01*
X146403966Y-106671401D01*
X146145986Y-106809294D01*
X145919866Y-106994866D01*
X145734294Y-107220986D01*
X145596401Y-107478966D01*
X145511487Y-107758889D01*
X145482815Y-108050000D01*
X144831214Y-108050000D01*
X144953599Y-107821034D01*
X145038513Y-107541111D01*
X145067185Y-107250000D01*
X145038513Y-106958889D01*
X144953599Y-106678966D01*
X144815706Y-106420986D01*
X144630134Y-106194866D01*
X144404014Y-106009294D01*
X144146034Y-105871401D01*
X143866111Y-105786487D01*
X143851600Y-105785058D01*
X143790001Y-105709999D01*
X143761002Y-105686201D01*
X143063803Y-104989002D01*
X143040001Y-104959999D01*
X142924276Y-104865026D01*
X142792247Y-104794454D01*
X142648986Y-104750997D01*
X142537333Y-104740000D01*
X142537322Y-104740000D01*
X142500000Y-104736324D01*
X142462678Y-104740000D01*
X135037322Y-104740000D01*
X134999999Y-104736324D01*
X134962676Y-104740000D01*
X134962667Y-104740000D01*
X134851014Y-104750997D01*
X134707753Y-104794454D01*
X134575724Y-104865026D01*
X134575722Y-104865027D01*
X134575723Y-104865027D01*
X134488996Y-104936201D01*
X134488992Y-104936205D01*
X134459999Y-104959999D01*
X134436205Y-104988992D01*
X133928474Y-105496724D01*
X133892012Y-105408698D01*
X133658363Y-105059017D01*
X133360983Y-104761637D01*
X133011302Y-104527988D01*
X132622756Y-104367047D01*
X132210279Y-104285000D01*
X131789721Y-104285000D01*
X131377244Y-104367047D01*
X130988698Y-104527988D01*
X130639017Y-104761637D01*
X130341637Y-105059017D01*
X130107988Y-105408698D01*
X129947047Y-105797244D01*
X129865000Y-106209721D01*
X128660000Y-106209721D01*
X128660000Y-100904155D01*
X129021161Y-101444670D01*
X129555330Y-101978839D01*
X130183446Y-102398533D01*
X130881372Y-102687623D01*
X131622285Y-102835000D01*
X132377715Y-102835000D01*
X133118628Y-102687623D01*
X133816554Y-102398533D01*
X134444670Y-101978839D01*
X134978839Y-101444670D01*
X135398533Y-100816554D01*
X135687623Y-100118628D01*
X135835000Y-99377715D01*
X135835000Y-98622285D01*
X135687623Y-97881372D01*
X135529654Y-97500000D01*
X137361928Y-97500000D01*
X137361928Y-100500000D01*
X137374188Y-100624482D01*
X137410498Y-100744180D01*
X137469463Y-100854494D01*
X137548815Y-100951185D01*
X137645506Y-101030537D01*
X137755820Y-101089502D01*
X137875518Y-101125812D01*
X138000000Y-101138072D01*
X141000000Y-101138072D01*
X141124482Y-101125812D01*
X141244180Y-101089502D01*
X141354494Y-101030537D01*
X141451185Y-100951185D01*
X141530537Y-100854494D01*
X141589502Y-100744180D01*
X141625812Y-100624482D01*
X141638072Y-100500000D01*
X141638072Y-98789721D01*
X142445000Y-98789721D01*
X142445000Y-99210279D01*
X142527047Y-99622756D01*
X142687988Y-100011302D01*
X142921637Y-100360983D01*
X143219017Y-100658363D01*
X143568698Y-100892012D01*
X143957244Y-101052953D01*
X144369721Y-101135000D01*
X144790279Y-101135000D01*
X145202756Y-101052953D01*
X145591302Y-100892012D01*
X145940983Y-100658363D01*
X146238363Y-100360983D01*
X146472012Y-100011302D01*
X146632953Y-99622756D01*
X146715000Y-99210279D01*
X146715000Y-98789721D01*
X146632953Y-98377244D01*
X146472012Y-97988698D01*
X146238363Y-97639017D01*
X145940983Y-97341637D01*
X145591302Y-97107988D01*
X145202756Y-96947047D01*
X144790279Y-96865000D01*
X144369721Y-96865000D01*
X143957244Y-96947047D01*
X143568698Y-97107988D01*
X143219017Y-97341637D01*
X142921637Y-97639017D01*
X142687988Y-97988698D01*
X142527047Y-98377244D01*
X142445000Y-98789721D01*
X141638072Y-98789721D01*
X141638072Y-97500000D01*
X141625812Y-97375518D01*
X141589502Y-97255820D01*
X141530537Y-97145506D01*
X141451185Y-97048815D01*
X141354494Y-96969463D01*
X141244180Y-96910498D01*
X141124482Y-96874188D01*
X141000000Y-96861928D01*
X138000000Y-96861928D01*
X137875518Y-96874188D01*
X137755820Y-96910498D01*
X137645506Y-96969463D01*
X137548815Y-97048815D01*
X137469463Y-97145506D01*
X137410498Y-97255820D01*
X137374188Y-97375518D01*
X137361928Y-97500000D01*
X135529654Y-97500000D01*
X135398533Y-97183446D01*
X134978839Y-96555330D01*
X134444670Y-96021161D01*
X133904155Y-95660000D01*
X150095845Y-95660000D01*
X149555330Y-96021161D01*
G37*
G04 #@! TD.AperFunction*
M02*
