M48
; DRILL file {KiCad (5.1.8)-1} date 12/25/20 11:22:23
; FORMAT={-:-/ absolute / metric / decimal}
; #@! TF.CreationDate,2020-12-25T11:22:23+09:00
; #@! TF.GenerationSoftware,Kicad,Pcbnew,(5.1.8)-1
; #@! TF.FileFunction,Plated,1,2,PTH
FMAT,2
METRIC
T1C0.400
T2C0.700
T3C1.520
T4C3.200
%
G90
G05
T1
X130.0Y-103.5
X130.0Y-119.5
X137.0Y-96.5
X137.0Y-103.5
X137.0Y-111.5
X137.0Y-119.5
X137.0Y-126.5
X142.0Y-96.5
X142.0Y-126.5
X143.5Y-104.5
X143.5Y-111.5
X143.5Y-119.5
X147.0Y-96.5
X147.0Y-126.5
X149.5Y-119.5
X154.0Y-103.5
X154.0Y-119.5
T3
X139.5Y-99.0
X144.58Y-99.0
X139.42Y-124.0
X144.5Y-124.0
X132.0Y-106.42
X132.0Y-111.5
X132.0Y-116.58
T4
X152.0Y-99.0
X132.0Y-99.0
X152.0Y-124.0
X132.0Y-124.0
T2
G00X139.5Y-108.75
M15
G01X139.5Y-109.45
M16
G05
G00X139.5Y-113.55
M15
G01X139.5Y-114.25
M16
G05
G00X143.6Y-107.25
M15
G01X142.9Y-107.25
M16
G05
G00X143.6Y-115.75
M15
G01X142.9Y-115.75
M16
G05
G00X147.65Y-108.05
M15
G01X146.95Y-108.05
M16
G05
G00X147.65Y-114.95
M15
G01X146.95Y-114.95
M16
G05
G00X150.35Y-108.05
M15
G01X149.65Y-108.05
M16
G05
G00X150.35Y-114.95
M15
G01X149.65Y-114.95
M16
G05
G00X153.05Y-108.05
M15
G01X152.35Y-108.05
M16
G05
G00X153.05Y-114.95
M15
G01X152.35Y-114.95
M16
G05
G00X155.75Y-108.05
M15
G01X155.05Y-108.05
M16
G05
G00X155.75Y-114.95
M15
G01X155.05Y-114.95
M16
G05
T0
M30
